<svg id="Layer_2" data-name="Layer 2" xmlns="http://www.w3.org/2000/svg" viewBox="0 0 348 193"><defs><style>.cls-1{fill:#262626;}.cls-2{fill:#fff;}.cls-3{fill:#f2f2f2;}</style></defs><title>facebook_icon</title><rect class="cls-1" width="193" height="193"/><path class="cls-2" d="M112.08,196V124H81.2V103.36h30.88V72.48s0-30.88,20.59-30.88h30.88V62.19H143s-10.29,0-10.29,20.58v20.59h30.88V124H132.67V196Z" transform="translate(-4 -3)"/><rect class="cls-1" x="333" y="125" width="15" height="15"/><path class="cls-3" d="M340.67,130.74h1.27v1.15h-1.27Zm0,2.34h1.27v5.84h-1.27Z" transform="translate(-4 -3)"/><path class="cls-3" d="M343.87,133.08h1.27v5.84h-1.27Zm3.92,2.31a1.23,1.23,0,0,0-.35-1,1.38,1.38,0,0,0-1-.34,1.42,1.42,0,0,0-1,.3,1.05,1.05,0,0,0-.34.84L345,134.1a2.17,2.17,0,0,1,.78-.81,2.07,2.07,0,0,1,1.07-.29,2.12,2.12,0,0,1,1.63.62,2.52,2.52,0,0,1,.58,1.76v3.54h-1.28Z" transform="translate(-4 -3)"/></svg>