<svg xmlns="http://www.w3.org/2000/svg" viewBox="0 0 194 194"><defs><style>.cls-1{fill:#262626;}.cls-2{fill:#fff;}</style></defs><title>twitter_icon</title><g id="Layer_2" data-name="Layer 2"><rect class="cls-1" width="194" height="194"/></g><g id="Layer_3" data-name="Layer 3"><path class="cls-2" d="M103.23,88s0-35.1,17.55-35.1c0,0,17.55,0,26.32,8.77,0,0,6.7,0,14.25-5.86a34.25,34.25,0,0,0,3.3-2.91c8.78-8.78-8.77,17.55-8.77,17.55l17.55-8.78L155.88,79.22s8.77,70.2-79,79c0,0-35.1-8.78-35.1-17.55,0,0,26.33,8.77,35.1-8.78,0,0-26.32-8.77-26.32-17.55h0s17.55,8.78,26.32,8.78c0,0-35.1-17.55-35.1-35.1,0,0,8.78,8.77,17.55,8.77,0,0-17.55-17.55-8.77-35.1,0,0,43.87,35.1,52.65,26.33Z" transform="translate(-3 -3)"/></g></svg>