<?xml version="1.0" encoding="utf-8"?>
<!-- Generator: Adobe Illustrator 22.0.0, SVG Export Plug-In . SVG Version: 6.00 Build 0)  -->
<svg version="1.1" xmlns="http://www.w3.org/2000/svg" xmlns:xlink="http://www.w3.org/1999/xlink" x="0px" y="0px"
	 viewBox="0 0 800 800" style="enable-background:new 0 0 800 800;" xml:space="preserve">
<style type="text/css">
	.st0{fill:#D8B407;}
</style>
<g id="helmet">
	<path d="M482.7,190.4c-124.7-67.5-203.2,32.7-203.2,32.7c59.9-49.8,123.7-32.2,123.7-32.2l-27.5,113.9c-3.7-1.1-7.6-1.7-11.7-1.7
		c-20.9,0-38,16-39.8,36.4l-81-34.9l-1.4,21.3l88.5,38.6c2.7,4.2,6,7.8,10,10.8c1.9,1.5,3.9,2.7,5.9,3.6c5.4,2.7,11.4,4.2,17.9,4.2
		c4.3,0,8.4-0.7,12.2-1.9l109.5,47.7l-29,28.8l-121.3-23c69.8,14.3,88.2,48,88.2,48C450.8,478,459,473,459,473
		c71.5-30.7,87.2-85.4,87.2-85.4C595.9,254.2,482.7,190.4,482.7,190.4z M364,371c-15.5,0-28-12.5-28-28c0-15.5,12.5-28,28-28
		s28,12.5,28,28C392,358.5,379.5,371,364,371z M455,327.7l-9.3,3.5c-2.9,0.2-2.1,4-2.1,4l8.5,31.1c1,6.7-1.9,6.9-1.9,6.9l-34.7,8.6
		c-1.1-2.9-15.9-8.2-23.1-10.5c7.1-7.2,11.5-17.1,11.6-28.1l11.2-1.9c4.7-6.4-2-9.7-2-9.7l-10.5,1.5c-2.8-10.6-9.7-19.5-19-24.7
		l16-62.9l9.8,6c12.5,7.2,23.1,38.6,23.1,38.6c3.5,9.3,24.4,30.9,24.4,30.9C459.6,326.3,455,327.7,455,327.7z M482.5,391.1l-4.2-0.7
		c26.4-73.4-4.7-151.7-69.7-175.1l4.2,0.7C477.8,239.4,509,317.7,482.5,391.1z"/>
</g>
<g id="text">
	<g>
		<path class="st0" d="M246.8,555.5v-41.7h5.6v37.5h19.4v4.2H246.8z"/>
		<path class="st0" d="M314.4,513.9h5.5v27.7c0,3.3,0.3,5.6,1,6.9s1.6,2.3,2.7,3c1.1,0.7,2.5,1,4,1c2.3,0,4.2-0.7,5.7-2.1
			c1.5-1.4,2.3-4.4,2.3-9v-27.5h4.8v26.7c0,3-0.2,5.3-0.5,6.8c-0.5,2.5-1.8,4.6-4,6.5s-4.9,2.8-8.4,2.8c-4.2,0-7.4-1.2-9.8-3.6
			c-1.2-1.2-2.1-2.7-2.6-4.3c-0.4-1.1-0.6-2.1-0.7-3.2c-0.1-1-0.2-2.4-0.2-4.1V513.9z"/>
		<path class="st0" d="M383.7,555.5v-41.7h5.3l16.6,31.7l0.1,0v-31.7h4.5v41.7H405l-16.7-31.9l-0.1,0v31.9H383.7z"/>
		<path class="st0" d="M449.4,555.5l14.3-41.7h5.5l14.3,41.7h-5.9l-4-11.8h-15.4l-4,11.8H449.4z M459.6,539.6h12.5l-6.3-18.3
			L459.6,539.6z"/>
		<path class="st0" d="M523.8,555.5v-41.7h10.1c3.9,0,6.7,0.4,8.4,1.1c1.7,0.7,3.1,1.9,4.1,3.6c1,1.7,1.5,3.5,1.5,5.4
			c0,2-0.6,4.1-1.7,6.3c-1.1,2.2-3.4,4.1-6.7,5.8l13,19.5h-6.7l-11.4-17.8h-5v17.8H523.8z M529.3,533.6h2.9c3.2,0,5.6-0.9,7.2-2.7
			c1.6-1.8,2.4-3.9,2.4-6.4c0-1.3-0.3-2.4-0.8-3.4c-0.5-1-1.4-1.7-2.5-2.2c-1.2-0.5-3.1-0.8-5.9-0.8h-3.4V533.6z"/>
		<path d="M243.2,624.8v-41.7h6.7l7.9,23.7h0.1l7.8-23.7h7v41.7h-4.5v-36.7l-0.1,0l-8.2,25.6h-4.4l-8.3-24.7l-0.1,0v35.8H243.2z"/>
		<path d="M316.1,624.8v-41.7h24.4v4.2h-18.8v13.4h16v4.2h-16v15.8h20.1v4.2H316.1z"/>
		<path d="M383.2,624.8v-41.7h10.9c6.5,0,11.1,1.8,13.9,5.3c2.8,3.5,4.2,8.4,4.2,14.7c0,3.3-0.4,6.3-1.1,9.1c-0.7,2.8-2.1,5.2-4,7.3
			c-1.8,2-3.9,3.4-6.2,4.2c-2.3,0.8-5.1,1.2-8.2,1.2H383.2z M388.8,620.6h2.8c3.9,0,6.8-0.6,8.7-1.8s3.4-3,4.4-5.6
			c1-2.5,1.5-5.7,1.5-9.6c0-3.8-0.5-6.9-1.4-9.4c-0.9-2.4-2.3-4.2-4.1-5.4c-1.8-1.1-4.9-1.7-9.3-1.7l-2.6,0V620.6z"/>
		<path d="M453.9,624.8v-4.2h9.7v-33.3h-9.7v-4.2h25v4.2h-9.7v33.3h9.7v4.2H453.9z"/>
		<path d="M518.9,624.8l14.3-41.7h5.5l14.3,41.7h-5.9l-4-11.8h-15.4l-4,11.8H518.9z M529.1,608.8h12.5l-6.3-18.3L529.1,608.8z"/>
	</g>
</g>
</svg>
