<svg id="Layer_1" data-name="Layer 1" xmlns="http://www.w3.org/2000/svg" viewBox="0 0 317.01 457.87"><defs><style>.cls-1{fill:#d8b407;}</style></defs><title>lunar_logo</title><g id="helmet"><path d="M245.7,27.4C121-40.1,42.5,60.1,42.5,60.1c59.9-49.8,123.7-32.2,123.7-32.2L138.7,141.8a40.86,40.86,0,0,0-11.7-1.7,39.94,39.94,0,0,0-39.8,36.4l-81-34.9L4.8,162.9l88.5,38.6a41.15,41.15,0,0,0,10,10.8,28.31,28.31,0,0,0,5.9,3.6,39.65,39.65,0,0,0,17.9,4.2,40.47,40.47,0,0,0,12.2-1.9l109.5,47.7-29,28.8-121.3-23c69.8,14.3,88.2,48,88.2,48C213.8,315,222,310,222,310c71.5-30.7,87.2-85.4,87.2-85.4C358.9,91.2,245.7,27.4,245.7,27.4ZM127,208a28,28,0,1,1,28-28A28,28,0,0,1,127,208Zm91-43.3-9.3,3.5c-2.9.2-2.1,4-2.1,4l8.5,31.1c1,6.7-1.9,6.9-1.9,6.9l-34.7,8.6c-1.1-2.9-15.9-8.2-23.1-10.5A40.36,40.36,0,0,0,167,180.2l11.2-1.9c4.7-6.4-2-9.7-2-9.7l-10.5,1.5a39.91,39.91,0,0,0-19-24.7l16-62.9,9.8,6c12.5,7.2,23.1,38.6,23.1,38.6C199.1,136.4,220,158,220,158,222.6,163.3,218,164.7,218,164.7Zm27.5,63.4-4.2-.7c26.4-73.4-4.7-151.7-69.7-175.1l4.2.7C240.8,76.4,272,154.7,245.5,228.1Z" transform="translate(-4.8 -4.03)"/></g><g id="text"><path class="cls-1" d="M9.8,392.5V350.8h5.6v37.5H34.8v4.2Z" transform="translate(-4.8 -4.03)"/><path class="cls-1" d="M77.4,350.9h5.5v27.7c0,3.3.3,5.6,1,6.9a7.89,7.89,0,0,0,2.7,3,7.44,7.44,0,0,0,4,1,8,8,0,0,0,5.7-2.1c1.5-1.4,2.3-4.4,2.3-9V350.9h4.8v26.7a37,37,0,0,1-.5,6.8,11.33,11.33,0,0,1-4,6.5,12.19,12.19,0,0,1-8.4,2.8c-4.2,0-7.4-1.2-9.8-3.6a10.59,10.59,0,0,1-2.6-4.3,12.26,12.26,0,0,1-.7-3.2c-.1-1-.2-2.4-.2-4.1V350.9Z" transform="translate(-4.8 -4.03)"/><path class="cls-1" d="M146.7,392.5V350.8H152l16.6,31.7h.1V350.8h4.5v41.7H168l-16.7-31.9h-.1v31.9Z" transform="translate(-4.8 -4.03)"/><path class="cls-1" d="M212.4,392.5l14.3-41.7h5.5l14.3,41.7h-5.9l-4-11.8H221.2l-4,11.8Zm10.2-15.9h12.5l-6.3-18.3Z" transform="translate(-4.8 -4.03)"/><path class="cls-1" d="M286.8,392.5V350.8h10.1c3.9,0,6.7.4,8.4,1.1a8.4,8.4,0,0,1,4.1,3.6,10.48,10.48,0,0,1,1.5,5.4,14.2,14.2,0,0,1-1.7,6.3c-1.1,2.2-3.4,4.1-6.7,5.8l13,19.5h-6.7l-11.4-17.8h-5v17.8Zm5.5-21.9h2.9q4.8,0,7.2-2.7a9.26,9.26,0,0,0,2.4-6.4,7.42,7.42,0,0,0-.8-3.4,4.93,4.93,0,0,0-2.5-2.2,16.17,16.17,0,0,0-5.9-.8h-3.4v15.5Z" transform="translate(-4.8 -4.03)"/><path d="M6.2,461.8V420.1h6.7l7.9,23.7h.1l7.8-23.7h7v41.7H31.2V425.1h-.1l-8.2,25.6H18.5L10.2,426h-.1v35.8Z" transform="translate(-4.8 -4.03)"/><path d="M79.1,461.8V420.1h24.4v4.2H84.7v13.4h16v4.2h-16v15.8h20.1v4.2H79.1Z" transform="translate(-4.8 -4.03)"/><path d="M146.2,461.8V420.1h10.9c6.5,0,11.1,1.8,13.9,5.3s4.2,8.4,4.2,14.7a37.2,37.2,0,0,1-1.1,9.1,16.89,16.89,0,0,1-4,7.3,14.9,14.9,0,0,1-6.2,4.2,25.31,25.31,0,0,1-8.2,1.2h-9.5Zm5.6-4.2h2.8q5.85,0,8.7-1.8a11,11,0,0,0,4.4-5.6,26.13,26.13,0,0,0,1.5-9.6,27.81,27.81,0,0,0-1.4-9.4,10.87,10.87,0,0,0-4.1-5.4c-1.8-1.1-4.9-1.7-9.3-1.7h-2.6Z" transform="translate(-4.8 -4.03)"/><path d="M216.9,461.8v-4.2h9.7V424.3h-9.7v-4.2h25v4.2h-9.7v33.3h9.7v4.2Z" transform="translate(-4.8 -4.03)"/><path d="M281.9,461.8l14.3-41.7h5.5L316,461.8h-5.9l-4-11.8H290.7l-4,11.8Zm10.2-16h12.5l-6.3-18.3Z" transform="translate(-4.8 -4.03)"/></g></svg>